<?xml version="1.0" encoding="utf-8"?>
<!-- Generator: Adobe Illustrator 17.0.0, SVG Export Plug-In . SVG Version: 6.00 Build 0)  -->
<!DOCTYPE svg PUBLIC "-//W3C//DTD SVG 1.1//EN" "http://www.w3.org/Graphics/SVG/1.1/DTD/svg11.dtd">
<svg version="1.1" id="Layer_1" xmlns="http://www.w3.org/2000/svg" xmlns:xlink="http://www.w3.org/1999/xlink" x="0px" y="0px"
	 width="512px" height="512px" viewBox="0 0 512 512" enable-background="new 0 0 512 512" xml:space="preserve">
<g>
	<defs>
		<rect id="SVGID_1_" width="512" height="512"/>
	</defs>
	<clipPath id="SVGID_2_">
		<use xlink:href="#SVGID_1_"  overflow="visible"/>
	</clipPath>
	<path clip-path="url(#SVGID_2_)" fill="#010101" d="M207.779,315.25l78.978,78.977c18.413,18.414,48.806,18.636,67.442,0
		c18.413-18.413,18.635-48.806,0-67.441l-78.978-78.978c-13.977-13.977-34.609-17.304-51.913-10.205l8.652-23.294l-49.472-49.472
		l-15.751,41.929l-41.929,15.751l49.25,49.25l23.294-8.652C190.253,280.421,193.803,301.273,207.779,315.25 M136.788,225.18
		l18.413-5.989l21.076,45.478L136.788,225.18z M208.095,285.839l94.191,94.191c7.321,7.321,19.079,8.43,27.509,2.662
		c-0.887,1.331-1.774,2.219-2.884,3.328c-8.43,8.43-22.406,8.652-31.058,0L215.1,305.267
		C207.113,297.281,202.122,291.812,208.095,285.839"/>
	<path clip-path="url(#SVGID_2_)" fill="#010101" d="M256.288,197.638l30.641,30.641c7.144,7.144,18.936,7.23,26.166,0
		c7.144-7.144,7.23-18.935,0-26.165l-30.641-30.642c-5.423-5.422-13.428-6.713-20.141-3.959l3.357-9.037l-19.194-19.194
		l-6.111,16.267l-16.268,6.111l19.108,19.108l9.038-3.357C249.488,184.126,250.865,192.216,256.288,197.638"/>
</g>
</svg>
