<?xml version="1.0" encoding="utf-8"?>
<!-- Generator: Adobe Illustrator 17.0.0, SVG Export Plug-In . SVG Version: 6.00 Build 0)  -->
<!DOCTYPE svg PUBLIC "-//W3C//DTD SVG 1.1//EN" "http://www.w3.org/Graphics/SVG/1.1/DTD/svg11.dtd">
<svg version="1.1" id="Layer_1" xmlns="http://www.w3.org/2000/svg" xmlns:xlink="http://www.w3.org/1999/xlink" x="0px" y="0px"
	 width="512px" height="512px" viewBox="0 0 512 512" enable-background="new 0 0 512 512" xml:space="preserve">
<g>
	<defs>
		<rect id="SVGID_1_" width="512" height="512"/>
	</defs>
	<clipPath id="SVGID_2_">
		<use xlink:href="#SVGID_1_"  overflow="visible"/>
	</clipPath>
	<path clip-path="url(#SVGID_2_)" fill="#010101" d="M211.482,337.961h0.003l86.265-86.265l4.182-14.885l23.748-23.754l-0.294-0.299
		c28.81-29.333,51.555-67.889,47.211-72.942c-5.053-4.344-43.607,18.404-72.939,47.214l-0.3-0.297l-23.754,23.748l-14.882,4.182
		l-86.267,86.265v0.003l-1.364-1.361l-4.308,4.308l19.877,19.875l19.878,19.877l4.308-4.308L211.482,337.961z M309.792,202.621
		l10.442,10.439l-18.302,18.299l-10.437-10.439l-10.441-10.436l18.299-18.302L309.792,202.621z M274.477,214.803l11.569,11.566
		l11.567,11.57l-1.787,6.381l-13.865-13.865l-13.865-13.865L274.477,214.803z M195.693,316.72l-15.792-15.789L195.693,316.72
		l15.789,15.792L195.693,316.72z"/>
	<path clip-path="url(#SVGID_2_)" fill="#010101" d="M160.219,295.709h0.001l43.133-43.133l2.09-7.442l11.875-11.877l-0.147-0.15
		c14.405-14.666,25.777-33.945,23.605-36.471c-2.526-2.172-21.803,9.202-36.469,23.607l-0.15-0.149l-11.877,11.875l-7.441,2.09
		l-43.134,43.133v0.001l-0.682-0.68l-2.154,2.154l9.939,9.937l9.938,9.939l2.154-2.154L160.219,295.709z M209.374,228.038l5.22,5.22
		l-9.151,9.15l-5.218-5.22l-5.221-5.218l9.15-9.151L209.374,228.038z M191.716,234.13l5.785,5.783l5.783,5.784l-0.894,3.191
		l-6.932-6.933l-6.932-6.932L191.716,234.13z M152.324,285.088l-7.896-7.895L152.324,285.088l7.895,7.896L152.324,285.088z"/>
	<path clip-path="url(#SVGID_2_)" fill="#010101" d="M241.219,369.883h0.001l43.133-43.133l2.09-7.442l11.875-11.877l-0.147-0.15
		c14.405-14.666,25.777-33.945,23.605-36.471c-2.526-2.172-21.803,9.202-36.469,23.607l-0.15-0.149l-11.877,11.875l-7.441,2.09
		l-43.134,43.133v0.001l-0.682-0.68l-2.154,2.154l9.939,9.937l9.938,9.939l2.154-2.154L241.219,369.883z M290.374,302.213l5.22,5.22
		l-9.151,9.15l-5.218-5.22l-5.221-5.218l9.15-9.151L290.374,302.213z M272.716,308.305l5.785,5.783l5.783,5.784l-0.894,3.191
		l-6.932-6.933l-6.932-6.932L272.716,308.305z M233.324,359.263l-7.896-7.895L233.324,359.263l7.895,7.896L233.324,359.263z"/>
</g>
</svg>
