<?xml version="1.0" encoding="utf-8"?>
<!-- Generator: Adobe Illustrator 17.0.0, SVG Export Plug-In . SVG Version: 6.00 Build 0)  -->
<!DOCTYPE svg PUBLIC "-//W3C//DTD SVG 1.1//EN" "http://www.w3.org/Graphics/SVG/1.1/DTD/svg11.dtd">
<svg version="1.1" xmlns="http://www.w3.org/2000/svg" xmlns:xlink="http://www.w3.org/1999/xlink" x="0px" y="0px" width="500px"
	 height="500px" viewBox="0 0 500 500" enable-background="new 0 0 500 500" xml:space="preserve">
<g id="Layer_1">
</g>
<g id="Layer_2">
</g>
<g id="Layer_6">
</g>
<g id="Layer_3">
</g>
<g id="Layer_4">
</g>
<g id="Layer_5">
	<text fill="#ffffff" transform="matrix(1 0 0 1 231.4786 413.9265)" font-family="'Titillium-Bold'" font-size="10">RANKED</text>
	<polygon fill="#ffffff" points="249.978,391.881 251.124,394.203 253.687,394.576 251.833,396.383 252.27,398.935 249.978,397.73 247.686,398.935 
		248.124,396.383 246.27,394.576 248.832,394.203 	"/>
	<polygon fill="#ffffff" points="258.238,396.731 259.387,399.059 261.957,399.433 260.098,401.245 260.536,403.804 258.238,402.595 
		255.94,403.804 256.379,401.245 254.52,399.433 257.089,399.059 	"/>
	<polygon fill="#ffffff" points="241.187,396.731 242.336,399.059 244.905,399.433 243.046,401.245 243.485,403.804 241.187,402.595 
		238.889,403.804 239.328,401.245 237.469,399.433 240.038,399.059 	"/>
	<polygon fill="#ffffff" points="250.389,420.819 251.535,423.141 254.098,423.513 252.243,425.321 252.681,427.873 250.389,426.668 
		248.097,427.873 248.535,425.321 246.681,423.513 249.243,423.141 	"/>
	<polygon fill="#ffffff" points="258.649,417.283 259.798,419.611 262.367,419.984 260.508,421.796 260.947,424.355 258.649,423.147 
		256.351,424.355 256.79,421.796 254.931,419.984 257.5,419.611 	"/>
	<polygon fill="#ffffff" points="241.598,417.283 242.747,419.611 245.316,419.984 243.457,421.796 243.896,424.355 241.598,423.147 239.3,424.355 
		239.738,421.796 237.879,419.984 240.449,419.611 	"/>
</g>
<g id="Layer_11">
</g>
<g id="Layer_10">
</g>
<g id="Layer_8">
	<circle fill="none" stroke="#ffffff" stroke-width="6" stroke-miterlimit="10" cx="250" cy="251.908" r="123.504"/>
	<circle fill="none" stroke="#ffffff" stroke-miterlimit="10" cx="249.918" cy="251.908" r="130.433"/>
	<g>
		<g>
			<path fill="#ffffff" d="M212.492,121.285c-0.426,0.22-1.277,0.591-1.884,0.766c-2.06,0.592-2.881-0.332-3.58-2.605
				c-0.758-2.465-0.442-3.56,1.636-4.157c0.731-0.21,1.663-0.292,2.122-0.314c0.099,0.429,0.148,0.643,0.248,1.072
				c-0.489,0.061-1.37,0.224-1.829,0.355c-1.073,0.307-1.303,0.764-0.755,2.614c0.52,1.753,0.89,2.128,2.058,1.795
				c0.454-0.13,1.276-0.441,1.658-0.607C212.296,120.636,212.361,120.853,212.492,121.285z"/>
			<path fill="#ffffff" d="M212.888,114.265c1.084-0.278,1.627-0.411,2.715-0.669c1.261,2.495,1.877,3.748,3.081,6.264
				c-0.548,0.123-0.822,0.186-1.369,0.315c-0.22-0.453-0.33-0.68-0.552-1.133c-0.951,0.226-1.426,0.343-2.374,0.585
				c0.014,0.504,0.021,0.756,0.037,1.26c-0.545,0.14-0.817,0.212-1.361,0.357C212.965,118.457,212.929,117.061,212.888,114.265z
				 M214.354,118.399c0.747-0.189,1.122-0.281,1.871-0.461c-0.578-1.189-0.871-1.783-1.461-2.968
				c-0.197,0.048-0.296,0.073-0.493,0.122C214.297,116.415,214.314,117.077,214.354,118.399z"/>
			<path fill="#ffffff" d="M220.563,117.429c0.161,0.775,0.242,1.163,0.403,1.938c-0.55,0.114-0.824,0.173-1.373,0.292
				c-0.579-2.656-0.869-3.984-1.448-6.64c1.042-0.227,1.563-0.336,2.607-0.544c1.67-0.333,2.67,0.285,2.952,1.839
				c0.282,1.554-0.393,2.563-2.01,2.885C221.241,117.289,221.015,117.336,220.563,117.429z M221.453,116.045
				c0.703-0.14,0.971-0.618,0.809-1.462c-0.16-0.834-0.575-1.092-1.29-0.949c-0.46,0.092-0.69,0.139-1.149,0.234
				c0.2,0.963,0.3,1.444,0.5,2.407C220.775,116.181,221.001,116.135,221.453,116.045z"/>
			<path fill="#ffffff" d="M223.662,111.924c2.094-0.375,3.144-0.543,5.248-0.843c0.069,0.483,0.103,0.724,0.172,1.207
				c-0.751,0.107-1.126,0.163-1.876,0.28c0.343,2.204,0.514,3.307,0.857,5.511c-0.553,0.086-0.83,0.13-1.382,0.222
				c-0.364-2.201-0.547-3.301-0.911-5.502c-0.758,0.125-1.136,0.191-1.892,0.326C223.79,112.645,223.747,112.404,223.662,111.924z"
				/>
			<path fill="#ffffff" d="M233.162,116.293c0.821-0.097,1.185-0.527,1.098-1.321c-0.197-1.8-0.295-2.701-0.492-4.501
				c0.582-0.064,0.873-0.094,1.456-0.152c0.178,1.79,0.267,2.685,0.445,4.476c0.168,1.691-0.658,2.489-2.367,2.69
				c-1.709,0.201-2.7-0.382-2.929-2.066c-0.243-1.782-0.365-2.674-0.609-4.456c0.581-0.079,0.871-0.118,1.453-0.191
				c0.227,1.797,0.341,2.695,0.569,4.492C231.888,116.066,232.341,116.389,233.162,116.293z"/>
			<path fill="#ffffff" d="M238.545,114.557c0.072,0.909,0.108,1.363,0.18,2.272c-0.557,0.044-0.836,0.068-1.393,0.117
				c-0.241-2.708-0.362-4.062-0.603-6.77c1.116-0.099,1.674-0.144,2.791-0.222c1.64-0.115,2.576,0.532,2.658,2.079
				c0.05,0.938-0.31,1.587-0.924,2.015c0.462,1.014,0.689,1.521,1.137,2.538c-0.611,0.033-0.916,0.051-1.526,0.09
				c-0.377-0.889-0.568-1.333-0.956-2.22C239.363,114.494,239.09,114.514,238.545,114.557z M239.602,111.131
				c-0.529,0.037-0.793,0.057-1.321,0.099c0.068,0.861,0.102,1.291,0.171,2.152c0.529-0.042,0.794-0.062,1.323-0.099
				c0.713-0.05,0.972-0.546,0.935-1.144C240.668,111.491,240.296,111.083,239.602,111.131z"/>
			<path fill="#ffffff" d="M243.291,109.737c1.864-0.084,2.796-0.111,4.661-0.137c0.007,0.48,0.01,0.72,0.017,1.2
				c-1.27,0.017-1.904,0.033-3.173,0.077c0.022,0.635,0.034,0.953,0.056,1.588c1.006-0.035,1.509-0.049,2.515-0.067
				c0.008,0.472,0.013,0.707,0.021,1.179c-0.998,0.018-1.497,0.031-2.495,0.066c0.023,0.651,0.034,0.977,0.057,1.628
				c1.231-0.043,1.847-0.058,3.079-0.075c0.007,0.48,0.01,0.719,0.016,1.199c-1.78,0.024-2.67,0.05-4.449,0.13
				C243.474,113.811,243.413,112.453,243.291,109.737z"/>
			<path fill="#ffffff" d="M250.85,109.589c2.119,0.012,3.179,0.037,5.297,0.124c-0.02,0.487-0.03,0.731-0.05,1.218
				c-0.756-0.031-1.134-0.044-1.891-0.066c-0.063,2.23-0.095,3.345-0.158,5.575c-0.558-0.016-0.837-0.022-1.395-0.033
				c0.042-2.23,0.062-3.346,0.104-5.576c-0.765-0.014-1.148-0.019-1.913-0.023C250.846,110.321,250.847,110.077,250.85,109.589z"/>
			<path fill="#ffffff" d="M260.911,113.974c-1.042-0.078-1.563-0.113-2.605-0.172c-0.064,1.126-0.096,1.688-0.161,2.814
				c-0.558-0.032-0.837-0.046-1.395-0.073c0.129-2.716,0.193-4.073,0.321-6.789c0.585,0.028,0.877,0.043,1.462,0.076
				c-0.063,1.11-0.095,1.665-0.158,2.774c1.051,0.06,1.576,0.095,2.627,0.174c0.083-1.108,0.125-1.663,0.208-2.771
				c0.584,0.044,0.875,0.067,1.459,0.117c-0.23,2.709-0.345,4.063-0.576,6.772c-0.557-0.047-0.835-0.07-1.392-0.111
				C260.784,115.661,260.827,115.098,260.911,113.974z"/>
			<path fill="#ffffff" d="M264.236,110.266c1.859,0.178,2.787,0.281,4.641,0.517c-0.061,0.476-0.091,0.714-0.151,1.19
				c-1.262-0.161-1.893-0.234-3.158-0.367c-0.067,0.632-0.1,0.948-0.167,1.58c1.002,0.106,1.503,0.163,2.504,0.286
				c-0.058,0.468-0.086,0.702-0.144,1.17c-0.993-0.122-1.489-0.179-2.484-0.284c-0.068,0.648-0.103,0.972-0.171,1.62
				c1.227,0.129,1.84,0.201,3.064,0.357c-0.061,0.476-0.091,0.714-0.151,1.19c-1.77-0.225-2.656-0.324-4.43-0.494
				C263.848,114.325,263.977,112.972,264.236,110.266z"/>
			<path fill="#ffffff" d="M272.394,111.273c1.824,0.276,2.735,0.429,4.552,0.761c-0.086,0.472-0.13,0.708-0.216,1.18
				c-1.229-0.225-1.845-0.331-3.077-0.53c-0.127,0.789-0.191,1.184-0.319,1.973c0.994,0.161,1.49,0.245,2.482,0.423
				c-0.085,0.472-0.127,0.709-0.212,1.181c-0.984-0.176-1.476-0.26-2.462-0.419c-0.153,0.947-0.229,1.421-0.383,2.368
				c-0.553-0.089-0.83-0.133-1.384-0.217C271.784,115.305,271.987,113.961,272.394,111.273z"/>
			<path fill="#ffffff" d="M276.692,118.901c0.509-2.671,0.763-4.006,1.271-6.677c0.577,0.11,0.866,0.166,1.443,0.282
				c-0.439,2.187-0.658,3.281-1.097,5.468c1.001,0.201,1.501,0.306,2.499,0.524c-0.104,0.476-0.157,0.715-0.261,1.191
				C279.008,119.353,278.237,119.195,276.692,118.901z"/>
			<path fill="#ffffff" d="M283.887,113.477c1.089,0.253,1.632,0.385,2.717,0.659c-0.032,2.796-0.062,4.192-0.153,6.98
				c-0.544-0.144-0.817-0.214-1.362-0.353c0.014-0.504,0.02-0.756,0.032-1.26c-0.949-0.239-1.424-0.354-2.376-0.576
				c-0.22,0.454-0.33,0.681-0.548,1.135c-0.547-0.127-0.821-0.189-1.37-0.31C282.023,117.232,282.635,115.977,283.887,113.477z
				 M283.28,117.82c0.75,0.177,1.124,0.267,1.872,0.454c0.035-1.322,0.05-1.983,0.072-3.307c-0.197-0.048-0.296-0.072-0.494-0.12
				C284.144,116.034,283.854,116.629,283.28,117.82z"/>
			<path fill="#ffffff" d="M291.055,118.62c0.796,0.233,1.194,0.352,1.988,0.596c-0.415,1.349-0.622,2.023-1.037,3.372c0,0-1.465-0.205-2.338-0.458
				c-2.177-0.63-2.41-1.959-1.82-4.16c0.642-2.394,1.657-3.212,3.726-2.614c1.08,0.312,2.351,0.994,2.351,0.994
				c-0.142,0.404-0.213,0.606-0.355,1.01c0,0-1.182-0.497-2.11-0.767c-1.204-0.35-1.668-0.07-2.181,1.769
				c-0.486,1.742-0.374,2.297,0.852,2.653c0.405,0.118,0.831,0.203,0.831,0.203c0.15-0.506,0.225-0.759,0.376-1.265
				c-0.247-0.073-0.37-0.11-0.618-0.182C290.853,119.311,290.921,119.081,291.055,118.62z"/>
		</g>
	</g>
</g>
<g id="Layer_13">
</g>
<g id="Layer_7">
	<path fill="#ffffff" d="M352.119,201.836c-27.29-30.333-48.689-33.36-57.831-32.935l1.485-5.542c0.641-2.393-0.777-4.849-3.17-5.49
		c-2.393-0.641-4.849,0.777-5.49,3.17L225.88,389.566c-0.64,2.39,0.777,4.849,3.17,5.49c2.393,0.641,4.85-0.78,5.49-3.17
		l32.284-120.487c9.139-0.428,30.542,2.596,57.832,32.93c36.628,40.709,77.607,20.795,77.607,20.795l27.463-102.492
		C429.724,222.631,388.747,242.545,352.119,201.836z"/>
	<path fill="#ffffff" d="M70.274,222.631l27.463,102.492c0,0,40.979,19.914,77.607-20.795c27.29-30.333,48.693-33.358,57.832-32.93
		l32.284,120.487c0.64,2.39,3.097,3.811,5.49,3.17c2.393-0.641,3.81-3.1,3.17-5.49l-61.234-228.527
		c-0.641-2.393-3.097-3.811-5.49-3.17c-2.393,0.641-3.811,3.097-3.17,5.49l1.485,5.542c-9.141-0.425-30.541,2.602-57.831,32.935
		C111.253,242.545,70.276,222.631,70.274,222.631z"/>
</g>
<g id="Layer_9">
</g>
<g id="Layer_12">
</g>
<g id="Layer_14">
</g>
<g id="Layer_15">
</g>
</svg>
