<?xml version="1.0" encoding="utf-8"?>
<!-- Generator: Adobe Illustrator 17.0.0, SVG Export Plug-In . SVG Version: 6.00 Build 0)  -->
<!DOCTYPE svg PUBLIC "-//W3C//DTD SVG 1.1//EN" "http://www.w3.org/Graphics/SVG/1.1/DTD/svg11.dtd">
<svg version="1.1" id="Layer_1" xmlns="http://www.w3.org/2000/svg" xmlns:xlink="http://www.w3.org/1999/xlink" x="0px" y="0px"
	 width="512px" height="512px" viewBox="0 0 512 512" enable-background="new 0 0 512 512" xml:space="preserve">
<g>
	<defs>
		<rect id="SVGID_1_" width="512" height="512"/>
	</defs>
	<clipPath id="SVGID_2_">
		<use xlink:href="#SVGID_1_"  overflow="visible"/>
	</clipPath>
</g>
<g>
	<defs>
		<rect id="SVGID_3_" width="512" height="512"/>
	</defs>
	<clipPath id="SVGID_4_">
		<use xlink:href="#SVGID_3_"  overflow="visible"/>
	</clipPath>
	<path clip-path="url(#SVGID_4_)" fill="#010101" d="M371.31,298.063l14.098-0.686l2.66-8.962l-11.431-8.266l-1.001,0.048
		c0.137-0.652,0.295-1.303,0.425-1.958l0.583,0.291l13.783-3.024l1.138-9.274l-12.644-6.26l-0.696,0.154
		c0.082-1.944,0.116-3.884,0.103-5.821l0.473,0.126l12.905-5.711l-0.737-9.312l-13.642-3.617l-0.487,0.212
		c-0.199-1.22-0.439-2.43-0.665-3.641l11.026-7.817l-2.579-8.989l-13.192-0.772c-0.868-2.458-1.787-4.896-2.805-7.285l8.928-9.799
		l-4.437-8.228l-12.767,2.016c-0.94-1.54-1.917-3.062-2.928-4.557l7.014-11.818l-6.003-7.169l-12.37,4.66
		c-1.196-1.296-2.414-2.579-3.672-3.827l4.368-11.897l-7.213-5.948l-10.522,6.37c-1.423-1.052-2.867-2.081-4.344-3.075l1.974-12.356
		l-8.218-4.451l-8.965,8.136c-2.479-1.19-5.026-2.283-7.618-3.305l-0.576-11.917l-8.966-2.664l-6.768,9.363
		c-1.087-0.264-2.177-0.477-3.26-0.713l-2.534-11.578l-9.281-1.142l-5.091,10.289c-2.523-0.182-5.04-0.281-7.543-0.305
		l-4.656-10.532l-9.322,0.73l-2.863,10.824c-2.283,0.298-4.549,0.665-6.798,1.09l-7.183-10.131l-8.989,2.574l-0.707,12.065
		c-2.828,0.981-5.622,2.044-8.362,3.226l-9.034-8.221l-8.225,4.43l1.865,11.804c-2.067,1.268-4.08,2.619-6.072,4.011l-9.63-5.718
		l-7.166,6.003l3.837,10.2c-1.519,1.412-2.997,2.862-4.44,4.357l-11.407-4.179l-5.941,7.213l6.205,10.248
		c-1.238,1.711-2.427,3.46-3.579,5.239l-11.527-1.845l-4.45,8.222l7.755,8.547c-1.176,2.541-2.249,5.15-3.26,7.8l-12.206,0.603
		l-2.66,8.959l9.822,7.107c-0.202,0.892-0.404,1.783-0.586,2.678l-12.174,2.667l-1.142,9.274l11.057,5.476
		c-0.127,2.317-0.209,4.632-0.206,6.946l-11.492,5.078l0.733,9.318l12.086,3.202c0.463,3.093,1.073,6.165,1.783,9.216l-9.408,6.672
		l2.571,8.983l11.863,0.692c1.08,2.784,2.242,5.551,3.531,8.27l-7.971,8.753l4.433,8.225l12.034-1.903
		c1.557,2.362,3.175,4.663,4.879,6.891l-5.815,9.799l6.003,7.165l11.071-4.162c0.967,0.95,1.961,1.869,2.962,2.788l-4.244,11.574
		l7.21,5.949l10.865-6.573c1.7,1.156,3.425,2.263,5.184,3.333l-1.975,12.315l8.218,4.453l9.589-8.705
		c2.058,0.864,4.135,1.684,6.251,2.438l0.637,13.094l8.959,2.66l7.892-10.909c0.583,0.113,1.166,0.202,1.752,0.308l2.815,12.874
		l9.281,1.132l5.969-12.055c1.989,0.065,3.963,0.079,5.938,0.048l5.393,12.202l9.319-0.734l3.487-13.151
		c1.978-0.336,3.946-0.72,5.904-1.152l-0.028,0.456l8.163,11.506l8.983-2.572l0.819-14.087l-0.418-0.597
		c2.355-0.915,4.677-1.906,6.967-2.962l0.092,0.572l10.43,9.504l8.228-4.44l-2.201-13.937l-0.634-0.576
		c1.975-1.302,3.912-2.66,5.804-4.079l0.566,1.505l12.137,7.206l7.165-6.003l-4.971-13.203l-1.649-0.981
		c0.864-0.864,1.711-1.748,2.547-2.643l0.388,0.641l13.241,4.855l5.938-7.214l-7.296-12.075l-0.905-0.329
		c0.994-1.447,1.958-2.914,2.894-4.409l0.87,0.956l13.934,2.229l4.443-8.215l-9.476-10.45l-1.481-0.233
		c0.891-2.047,1.738-4.121,2.523-6.233L371.31,298.063z M164.801,219.214c17.862-46.429,67.49-72.681,116.504-60.263
		c0,0,17.636,5.342,8.818,2.671c46.775,16.536,73.983,65.46,63.77,113.716c0,0-3.991,15.861-1.996,7.931
		c-15.16,50.683-66.883,80.333-118.176,67.808c7.679,2.232,0,0-7.68-2.232c-24.048-7.923-43.854-24.428-55.964-46.788
		c-12.575-23.204-15.373-49.909-7.889-75.211L164.801,219.214"/>
	<path clip-path="url(#SVGID_4_)" fill="#010101" d="M257.405,246.267c5.106,0,9.246,4.14,9.246,9.248s-4.14,9.249-9.246,9.249
		c-5.108,0-9.249-4.141-9.249-9.249S252.297,246.267,257.405,246.267 M258,277.791c-35.574,0-73.384-7.737-73.384-22.076
		c0-14.338,37.808-22.074,73.384-22.074c35.577,0,73.387,7.736,73.387,22.074C331.387,270.054,293.573,277.791,258,277.791
		 M258,238.413c-39.268,0-68.611,9.134-68.611,17.302c0,8.166,29.343,17.304,68.611,17.304c39.271,0,68.611-9.135,68.611-17.304
		C326.611,247.546,297.271,238.413,258,238.413 M296.558,316.066c-12.232,0-35.342-19.358-56.195-47.074
		c-21.391-28.429-37.942-63.294-26.484-71.916c1.511-1.136,3.384-1.714,5.566-1.714c12.23,0,35.339,19.36,56.195,47.081
		c21.388,28.426,37.941,63.29,26.482,71.912C300.61,315.492,298.74,316.066,296.558,316.066 M219.445,200.136
		c-1.14,0-2.023,0.247-2.696,0.753c-6.528,4.912,3.814,33.851,27.426,65.231c22.079,29.344,43.465,45.176,52.383,45.176
		c1.141,0,2.021-0.249,2.694-0.754c6.527-4.915-3.816-33.852-27.427-65.229C249.747,215.969,228.36,200.136,219.445,200.136
		 M218.725,315.478c-2.264,0-4.191-0.602-5.729-1.796c-11.325-8.795,5.749-43.404,27.563-71.504
		c21.133-27.217,44.454-46.227,56.714-46.227c2.266,0,4.193,0.606,5.727,1.798c11.326,8.792-5.749,43.403-27.561,71.506
		C254.306,296.471,230.986,315.478,218.725,315.478 M297.271,200.725c-8.96,0-30.561,15.555-52.944,44.38
		c-24.076,31.017-34.854,59.799-28.404,64.804c0.69,0.537,1.607,0.797,2.802,0.797c8.961,0,30.562-15.553,52.944-44.376
		c24.081-31.021,34.857-59.799,28.405-64.808C299.383,200.985,298.468,200.725,297.271,200.725"/>
</g>
</svg>
