<?xml version="1.0" encoding="utf-8"?>
<!-- Generator: Adobe Illustrator 17.0.0, SVG Export Plug-In . SVG Version: 6.00 Build 0)  -->
<!DOCTYPE svg PUBLIC "-//W3C//DTD SVG 1.1//EN" "http://www.w3.org/Graphics/SVG/1.1/DTD/svg11.dtd">
<svg version="1.1" xmlns="http://www.w3.org/2000/svg" xmlns:xlink="http://www.w3.org/1999/xlink" x="0px" y="0px" width="500px"
	 height="500px" viewBox="0 0 500 500" enable-background="new 0 0 500 500" xml:space="preserve">
<g id="Layer_1">
</g>
<g id="Layer_2">
</g>
<g id="Layer_6">
</g>
<g id="Layer_3">
</g>
<g id="Layer_4">
</g>
<g id="Layer_5">
</g>
<g id="Layer_11">
</g>
<g id="Layer_10">
</g>
<g id="Layer_8">
</g>
<g id="Layer_13">
</g>
<g id="Layer_7">
</g>
<g id="Layer_9">
</g>
<g id="Layer_12">
</g>
<g id="Layer_14">
</g>
<g id="Layer_15">
</g>
<g id="Layer_16">
	<g>
		<g>
			<path fill="#ffffff" d="M300.847,262.74c-4.586,5.466-10.087,9.705-16.083,12.698l6.819,27.765
				c6.62-3.59,12.696-8.443,17.83-14.562c20.584-24.531,18.806-60.376-3.156-82.778C316.156,223.53,314.681,246.254,300.847,262.74z
				"/>
		</g>
		<path fill="#ffffff" d="M248.761,304.975c5.452,3.325,24,3.213,32.758,0l-16.379-85.37L248.761,304.975z"/>
		<path fill="#ffffff" d="M251.487,304.966"/>
		<path fill="#ffffff" d="M258.027,216.271"/>
		<path fill="#ffffff" d="M265.14,304.966l4.569-0.805l3.859-0.884c1.759-0.476,3.506-1.007,5.225-1.637"/>
	</g>
	<g>
		<path fill="#ffffff" d="M224.542,205.862c-21.962,22.403-23.74,58.248-3.156,82.778c5.135,6.119,11.21,10.973,17.83,14.562
			l6.819-27.765c-5.997-2.993-11.497-7.232-16.083-12.698C216.118,246.254,214.643,223.53,224.542,205.862z"/>
	</g>
	<circle fill="none" stroke="#ffffff" stroke-miterlimit="10" cx="265.14" cy="250.262" r="124.937"/>
	<!--<text fill="#ffffff" transform="matrix(1 0 0 1 249.4347 210.4701)" font-family="'Titillium-Bold'" font-size="10">HORDE</text>-->
	<circle fill="none" stroke="#ffffff" stroke-width="6" stroke-miterlimit="10" cx="265.14" cy="250.262" r="130.072"/>
	<line fill="none" stroke="#ffffff" stroke-miterlimit="10" x1="97.49" y1="250.262" x2="182.917" y2="250.262"/>
	<line fill="none" stroke="#ffffff" stroke-miterlimit="10" x1="347.364" y1="250.262" x2="432.79" y2="250.262"/>
	<line fill="none" stroke="#ffffff" stroke-miterlimit="10" x1="265.14" y1="417.912" x2="265.14" y2="332.485"/>
	<line fill="none" stroke="#ffffff" stroke-miterlimit="10" x1="265.14" y1="167.515" x2="265.14" y2="82.088"/>
</g>
</svg>
