<?xml version="1.0" encoding="utf-8"?>
<!-- Generator: Adobe Illustrator 17.0.0, SVG Export Plug-In . SVG Version: 6.00 Build 0)  -->
<!DOCTYPE svg PUBLIC "-//W3C//DTD SVG 1.1//EN" "http://www.w3.org/Graphics/SVG/1.1/DTD/svg11.dtd">
<svg version="1.1" xmlns="http://www.w3.org/2000/svg" xmlns:xlink="http://www.w3.org/1999/xlink" x="0px" y="0px" width="500px"
	 height="500px" viewBox="0 0 500 500" enable-background="new 0 0 500 500" xml:space="preserve">
<g id="Layer_1">
</g>
<g id="Layer_2">
</g>
<g id="Layer_6">
</g>
<g id="Layer_3">
</g>
<g id="Layer_4">
</g>
<g id="Layer_5">
</g>
<g id="Layer_11">
</g>
<g id="Layer_10">
</g>
<g id="Layer_8">
	<circle fill="none" stroke="#ffffff" stroke-miterlimit="10" cx="248" cy="247.908" r="130.433"/>
</g>
<g id="Layer_13">
</g>
<g id="Layer_7">
</g>
<g id="Layer_9">
</g>
<g id="Layer_12">
	<g>
		<circle fill="none" stroke="#ffffff" stroke-width="6" stroke-miterlimit="10" cx="248" cy="247.908" r="123.504"/>
		<path fill="#ffffff" d="M303.17,219.575l-34.964,27.458l-40.867-60.621l-52.434,78.582l-11.714-17.961l-16.725,35.921
			l-13.293,9.766l22.842,37.594l46.656,33.679l25.097,5.389l44.315-0.323l37.87-14.292l27.483-21.686l27.83-40.36L303.17,219.575z
			 M166.777,268.99l-13.653,9.742l10.181-22.488l10.026,15.089L166.777,268.99z M231.184,232.347l-6.787,18.739l-7.921-11.521
			l-35.071,27.922l46.385-67.468l34.371,47.321L231.184,232.347z M301.7,258.585l-6.408-14.991l-32.432,17.803l38.465-32.094
			l26.398,29.282l-18.477-7.497L301.7,258.585z"/>
	</g>
	<g>
		<g fill="#ffffff">
			<path d="M213.726,113.906c-0.361,0.122-0.542,0.184-0.902,0.308c0.235,1.017,0.352,1.525,0.586,2.542
				c-0.546,0.126-0.818,0.19-1.363,0.321c-0.635-2.643-0.953-3.965-1.587-6.609c0.568-0.136,0.853-0.203,1.422-0.335
				c0.268,1.165,0.403,1.747,0.671,2.912c0.363-0.125,0.545-0.186,0.909-0.309c0.201-1.229,0.306-1.844,0.525-3.074
				c0.648-0.141,0.973-0.209,1.622-0.343c-0.337,1.461-0.499,2.192-0.809,3.654c0.901,1.192,1.346,1.791,2.222,2.994
				c-0.63,0.13-0.946,0.196-1.575,0.333C214.766,115.339,214.422,114.86,213.726,113.906z"/>
			<path d="M216.586,109.12c0.965-0.193,1.448-0.286,2.416-0.464c1.086,2.076,1.618,3.119,2.659,5.21
				c0.04-0.007,0.061-0.01,0.101-0.017c-0.381-2.206-0.572-3.309-0.953-5.515c0.573-0.099,0.861-0.147,1.435-0.241
				c0.438,2.683,0.658,4.024,1.097,6.707c-0.905,0.148-1.358,0.226-2.261,0.387c-1.071-2.083-1.618-3.121-2.736-5.187
				c-0.041,0.008-0.062,0.012-0.103,0.02c0.419,2.199,0.629,3.299,1.048,5.498c-0.549,0.105-0.823,0.158-1.371,0.268
				C217.385,113.119,217.118,111.786,216.586,109.12z"/>
			<path d="M227.162,110.551c0.81-0.11,1.216-0.162,2.027-0.261c0.171,1.401,0.257,2.101,0.428,3.502c0,0-1.402,0.407-2.292,0.53
				c-2.219,0.305-2.966-0.818-3.317-3.069c-0.381-2.449,0.207-3.605,2.307-3.894c1.096-0.151,2.51-0.044,2.51-0.044
				c0.035,0.427,0.053,0.64,0.088,1.067c0,0-1.261,0.026-2.204,0.154c-1.224,0.167-1.529,0.61-1.252,2.499
				c0.262,1.79,0.587,2.252,1.836,2.082c0.412-0.056,0.83-0.152,0.83-0.152c-0.069-0.523-0.103-0.785-0.172-1.308
				c-0.252,0.033-0.378,0.05-0.629,0.084C227.258,111.264,227.226,111.026,227.162,110.551z"/>
			<path d="M232.505,110.201c-0.232-2.287,0.353-3.626,2.597-3.813c2.246-0.187,3.041,1.038,3.19,3.332
				c0.149,2.294-0.458,3.502-2.607,3.68C233.537,113.579,232.737,112.488,232.505,110.201z M236.834,109.821
				c-0.116-1.565-0.466-2.335-1.633-2.238c-1.166,0.097-1.384,0.914-1.24,2.477c0.144,1.562,0.491,2.239,1.624,2.145
				C236.719,112.11,236.95,111.386,236.834,109.821z"/>
			<path d="M239.311,106.213c1.822-0.104,2.734-0.144,4.558-0.197c0.014,0.479,0.021,0.719,0.035,1.199
				c-1.235,0.036-1.852,0.06-3.086,0.12c0.039,0.799,0.058,1.198,0.096,1.997c0.996-0.048,1.495-0.068,2.491-0.101
				c0.016,0.479,0.024,0.719,0.039,1.199c-0.989,0.032-1.484,0.053-2.472,0.1c0.046,0.958,0.069,1.438,0.116,2.396
				c-0.556,0.027-0.833,0.042-1.389,0.073C239.544,110.284,239.467,108.927,239.311,106.213z"/>
			<path d="M246.563,105.959c2.101-0.027,3.153-0.024,5.254,0.017c-0.009,0.488-0.014,0.731-0.023,1.219
				c-0.751-0.014-1.126-0.019-1.877-0.025c-0.017,2.231-0.026,3.346-0.043,5.577c-0.556-0.004-0.834-0.005-1.39-0.005
				c-0.003-2.231-0.004-3.346-0.006-5.577c-0.759,0.001-1.139,0.004-1.899,0.013C246.572,106.69,246.569,106.446,246.563,105.959z"
				/>
			<path d="M256.641,110.122c-1.037-0.052-1.555-0.074-2.592-0.108c-0.038,1.127-0.057,1.69-0.095,2.817
				c-0.556-0.019-0.834-0.027-1.39-0.041c0.067-2.718,0.102-4.077,0.169-6.794c0.58,0.014,0.87,0.023,1.45,0.042
				c-0.037,1.111-0.056,1.666-0.094,2.777c1.045,0.035,1.567,0.057,2.612,0.109c0.056-1.11,0.083-1.665,0.139-2.775
				c0.579,0.029,0.869,0.045,1.448,0.079c-0.159,2.714-0.241,4.071-0.4,6.785c-0.555-0.033-0.833-0.048-1.388-0.076
				C256.557,111.811,256.585,111.248,256.641,110.122z"/>
			<path d="M259.845,106.327c1.846,0.126,2.769,0.203,4.612,0.381c-0.046,0.477-0.069,0.716-0.115,1.194
				c-1.255-0.122-1.883-0.176-3.14-0.274c-0.049,0.634-0.074,0.951-0.123,1.585c0.997,0.077,1.496,0.12,2.492,0.212
				c-0.044,0.47-0.066,0.704-0.109,1.174c-0.989-0.092-1.484-0.134-2.474-0.211c-0.05,0.65-0.076,0.975-0.126,1.625
				c1.223,0.095,1.834,0.148,3.055,0.266c-0.046,0.477-0.069,0.716-0.115,1.194c-1.766-0.171-2.651-0.244-4.42-0.365
				C259.565,110.395,259.66,109.039,259.845,106.327z"/>
			<path d="M271.47,111.559c-1.03-0.149-1.545-0.219-2.576-0.35c-0.143,1.118-0.214,1.677-0.357,2.796
				c-0.553-0.071-0.829-0.105-1.383-0.17c0.32-2.7,0.481-4.049,0.801-6.749c0.577,0.069,0.866,0.104,1.443,0.178
				c-0.141,1.103-0.211,1.654-0.352,2.756c1.039,0.133,1.558,0.203,2.595,0.353c0.159-1.1,0.238-1.65,0.397-2.75
				c0.575,0.083,0.863,0.126,1.438,0.214c-0.411,2.687-0.619,4.031-1.03,6.718c-0.551-0.084-0.827-0.126-1.378-0.205
				C271.229,113.233,271.309,112.675,271.47,111.559z"/>
			<path d="M275.021,108.08c0.575,0.094,0.862,0.142,1.436,0.241c-0.461,2.679-0.693,4.019-1.154,6.698
				c-0.55-0.095-0.825-0.141-1.376-0.231C274.364,112.105,274.583,110.763,275.021,108.08z"/>
			<path d="M276.777,115.28c0.487-2.675,0.731-4.012,1.217-6.686c0.573,0.104,0.86,0.158,1.432,0.267
				c-0.419,2.191-0.629,3.287-1.048,5.478c0.997,0.191,1.495,0.29,2.49,0.497c-0.099,0.477-0.149,0.716-0.248,1.194
				C279.087,115.711,278.318,115.561,276.777,115.28z"/>
			<path d="M281.465,116.208c0.568-2.658,0.853-3.988,1.421-6.646c0.571,0.122,0.856,0.184,1.426,0.311
				c-0.485,2.177-0.729,3.266-1.214,5.443c0.993,0.221,1.488,0.336,2.478,0.574c-0.114,0.474-0.171,0.711-0.285,1.186
				C283.764,116.709,282.999,116.536,281.465,116.208z"/>
		</g>
	</g>
	<line fill="none" stroke="#ffffff" stroke-miterlimit="10" x1="346.651" y1="146.329" x2="371.504" y2="121.475"/>
	<line fill="none" stroke="#ffffff" stroke-miterlimit="10" x1="120.746" y1="371.413" x2="145.6" y2="346.559"/>
</g>
<g id="Layer_14">
</g>
<g id="Layer_15">
</g>
</svg>
