<?xml version="1.0" encoding="utf-8"?>
<!-- Generator: Adobe Illustrator 19.0.1, SVG Export Plug-In . SVG Version: 6.00 Build 0)  -->
<svg version="1.1" id="Layer_1" xmlns="http://www.w3.org/2000/svg" xmlns:xlink="http://www.w3.org/1999/xlink" x="0px" y="0px"
	 viewBox="-909 911 100 100" style="enable-background:new -909 911 100 100;" xml:space="preserve">
<style type="text/css">
	.st0{fill:#231F20;}
</style>
<g>
	<path class="st0" d="M-845.1,936.5h-27.3c-0.9,0-1.5,0.7-1.5,1.5V984c0,0.9,0.7,1.5,1.5,1.5h27.3c0.9,0,1.5-0.7,1.5-1.5V938
		C-843.6,937.2-844.3,936.5-845.1,936.5z M-851.5,953.3c0,0.7-0.6,1.3-1.3,1.3h-11.9c-0.7,0-1.3-0.6-1.3-1.3V949
		c0-0.7,0.6-1.3,1.3-1.3h11.9c0.7,0,1.3,0.6,1.3,1.3C-851.5,949-851.5,953.3-851.5,953.3z"/>
	<path class="st0" d="M-823.5,939.9h-16v9.5h9.2c0.7,0,1.3,0.6,1.3,1.3v4.3c0,0.7-0.6,1.3-1.3,1.3h-9.2v25.8h16
		c0.7,0,1.3-0.6,1.3-1.3v-39.6C-822.1,940.5-822.7,939.9-823.5,939.9z"/>
	<path class="st0" d="M-887.1,949.5h8.6v-9.5h-16c-0.7,0-1.3,0.6-1.3,1.3v39.6c0,0.7,0.6,1.3,1.3,1.3h16v-25.8h-8.6
		c-0.7,0-1.3-0.6-1.3-1.3v-4.3C-888.4,950.1-887.9,949.5-887.1,949.5z"/>
</g>
</svg>
