<?xml version="1.0" encoding="utf-8"?>
<!-- Generator: Adobe Illustrator 17.0.0, SVG Export Plug-In . SVG Version: 6.00 Build 0)  -->
<!DOCTYPE svg PUBLIC "-//W3C//DTD SVG 1.1//EN" "http://www.w3.org/Graphics/SVG/1.1/DTD/svg11.dtd">
<svg version="1.1" xmlns="http://www.w3.org/2000/svg" xmlns:xlink="http://www.w3.org/1999/xlink" x="0px" y="0px" width="500px"
	 height="500px" viewBox="0 0 500 500" enable-background="new 0 0 500 500" xml:space="preserve">
<g id="Layer_1">
</g>
<g id="Layer_2">
</g>
<g id="Layer_6">
</g>
<g id="Layer_3">
</g>
<g id="Layer_4">
</g>
<g id="Layer_5">
</g>
<g id="Layer_11">
</g>
<g id="Layer_10">
</g>
<g id="Layer_8">
</g>
<g id="Layer_13">
</g>
<g id="Layer_7">
</g>
<g id="Layer_9">
</g>
<g id="Layer_12">
</g>
<g id="Layer_14">
	<polygon fill="none" stroke="#ffffff" stroke-miterlimit="10" points="248.797,385.78 151.659,344.548 112.128,246.705 
		153.361,149.567 251.203,110.036 348.341,151.269 387.872,249.112 346.639,346.249 	"/>
	<polygon fill="none" stroke="#ffffff" stroke-width="6" stroke-miterlimit="10" points="248.854,379.188 156.361,339.927 
		118.721,246.763 157.982,154.27 251.146,116.629 343.639,155.89 381.279,249.054 342.018,341.547 	"/>
	<path fill="#ffffff" d="M250.078,199.803c-25.471,0-47.066,25.093-40.555,49.714c1.585,5.998,3.255,11.502,5.197,16.425
		c-3.075,3.417-1.746,10.017,1.18,13.202c1.794,1.952,5.803,5.309,9.167,6.675c2.721-0.398,10.68-0.847,10.188,7.575
		c0.923,0.375,1.889,0.7,2.884,0.995v-3.33h1.2v3.658c1.613,0.411,3.299,0.729,5.057,0.942v-4.6h1.196v4.717
		c1.629,0.154,3.299,0.238,5.015,0.238c0.014,0,0.03,0,0.044,0v-4.957h1.198v4.934c1.707-0.037,3.381-0.14,4.991-0.336v-4.598h1.201
		v4.426c1.673-0.247,3.28-0.585,4.81-1.022v-3.402h1.198v3.032c0.688-0.227,1.358-0.467,2.007-0.736
		c-1.338-10.524,9.296-8.761,10.806-8.46c3.478-1.167,7.889-4.841,9.797-6.916c3.043-3.308,4.373-10.323,0.803-13.601
		c-0.12-0.111-0.26-0.188-0.386-0.295c1.326-3.858,2.497-8.084,3.585-12.686C296.51,226.609,275.548,199.803,250.078,199.803z
		 M240.313,262.925c-4.377,3.171-9.131,9.282-14.967,5.736c-5.837-3.545-5.972-16.558-2.547-21.722
		c2.941-4.438,19.802-3.365,21.974,0.36C246.946,251.023,244.689,259.754,240.313,262.925z M255.873,278.559
		c-0.537,1.615-3.875-0.51-5.371-1.561c-1.493,1.051-4.834,3.177-5.371,1.561c-0.697-2.093,3.658-15.138,4.182-16.191
		c0.156-0.314,0.39-0.582,0.639-0.777c0.125-0.206,0.304-0.288,0.512-0.267c0.014-0.003,0.025,0.002,0.039,0
		c0.013,0.002,0.025-0.003,0.039,0c0.208-0.02,0.387,0.063,0.513,0.268c0.25,0.193,0.483,0.462,0.636,0.776
		C252.213,263.421,256.57,276.468,255.873,278.559z M276.636,267.623c-5.588,3.924-10.739-1.858-15.316-4.727
		c-4.58-2.869-7.41-11.435-5.488-15.296c1.918-3.859,18.672-6.054,21.902-1.823C281.491,250.703,282.22,263.695,276.636,267.623z"/>
	<text fill="#ffffff" transform="matrix(1 0 0 1 227.0898 314.3737)" font-family="'Titillium-Bold'" font-size="10">SURVIVOR</text>
</g>
<g id="Layer_15">
</g>
</svg>
