<?xml version="1.0" encoding="utf-8"?>
<!-- Generator: Adobe Illustrator 17.0.0, SVG Export Plug-In . SVG Version: 6.00 Build 0)  -->
<!DOCTYPE svg PUBLIC "-//W3C//DTD SVG 1.1//EN" "http://www.w3.org/Graphics/SVG/1.1/DTD/svg11.dtd">
<svg version="1.1" xmlns="http://www.w3.org/2000/svg" xmlns:xlink="http://www.w3.org/1999/xlink" x="0px" y="0px" width="500px"
	 height="500px" viewBox="0 0 500 500" enable-background="new 0 0 500 500" xml:space="preserve">
<g id="Layer_1">
</g>
<g id="Layer_2">
</g>
<g id="Layer_6">
</g>
<g id="Layer_3">
</g>
<g id="Layer_4">
</g>
<g id="Layer_5">
</g>
<g id="Layer_11">
</g>
<g id="Layer_10">
</g>
<g id="Layer_8">
</g>
<g id="Layer_13">
</g>
<g id="Layer_7">
</g>
<g id="Layer_9">
</g>
<g id="Layer_12">
</g>
<g id="Layer_14">
</g>
<g id="Layer_15">
	<polygon fill="none" stroke="#ffffff" stroke-miterlimit="10" points="257.133,387.872 159.995,346.639 120.464,248.797 
		161.696,151.659 259.539,112.128 356.677,153.361 396.208,251.203 354.975,348.341 	"/>
	<polygon fill="none" stroke="#ffffff" stroke-width="6" stroke-miterlimit="10" points="257.19,381.279 164.697,342.018 
		127.057,248.854 166.317,156.361 259.482,118.721 351.974,157.982 389.615,251.146 350.354,343.639 	"/>
	<path fill="#ffffff" d="M259.007,208.62c-23.137,0-42.752,22.793-36.839,45.158c1.439,5.448,2.957,10.448,4.721,14.92
		c-2.793,3.104-1.586,9.099,1.071,11.992c1.63,1.773,5.272,4.822,8.327,6.063c2.472-0.362,9.702-0.769,9.254,6.881
		c0.838,0.341,1.716,0.636,2.62,0.904v-3.025h1.09v3.323c1.465,0.373,2.997,0.662,4.593,0.856v-4.178h1.086v4.285
		c1.48,0.14,2.997,0.216,4.555,0.216c0.013,0,0.027,0,0.04,0v-4.503h1.088v4.482c1.55-0.033,3.071-0.128,4.534-0.305v-4.177h1.091
		v4.02c1.52-0.225,2.979-0.531,4.369-0.928v-3.09h1.088v2.754c0.625-0.206,1.233-0.424,1.823-0.669
		c-1.216-9.559,8.444-7.958,9.816-7.685c3.159-1.06,7.166-4.398,8.899-6.282c2.764-3.005,3.972-9.377,0.73-12.355
		c-0.109-0.1-0.236-0.17-0.35-0.268c1.204-3.505,2.268-7.343,3.256-11.524C301.183,232.97,282.142,208.62,259.007,208.62z
		 M250.137,265.957c-3.976,2.88-8.295,8.431-13.595,5.21c-5.302-3.22-5.425-15.041-2.313-19.731
		c2.672-4.031,17.988-3.056,19.96,0.327C256.162,255.146,254.112,263.077,250.137,265.957z M264.27,280.159
		c-0.488,1.467-3.52-0.463-4.878-1.418c-1.356,0.954-4.391,2.886-4.879,1.418c-0.633-1.901,3.323-13.751,3.799-14.708
		c0.142-0.285,0.354-0.529,0.58-0.706c0.114-0.187,0.276-0.261,0.465-0.243c0.013-0.003,0.023,0.002,0.036,0
		c0.012,0.002,0.023-0.003,0.036,0c0.189-0.018,0.351,0.057,0.466,0.244c0.227,0.176,0.439,0.419,0.578,0.705
		C260.946,266.408,264.904,278.259,264.27,280.159z M283.131,270.225c-5.076,3.565-9.755-1.688-13.912-4.294
		c-4.16-2.606-6.731-10.387-4.985-13.894c1.743-3.505,16.961-5.499,19.894-1.656C287.541,254.856,288.203,266.657,283.131,270.225z"
		/>
	<text fill="#ffffff" transform="matrix(1 0 0 1 221.6268 316.4656)" font-family="'Titillium-Bold'" font-size="10">TEAM SURVIVOR</text>
	<path fill="#ffffff" d="M182.807,214.727c-14.111,0-26.074,13.901-22.467,27.541c0.878,3.323,1.803,6.372,2.879,9.099
		c-1.703,1.893-0.967,5.549,0.653,7.314c0.994,1.081,3.215,2.941,5.078,3.698c1.507-0.221,5.917-0.469,5.644,4.196
		c0.511,0.208,1.046,0.388,1.598,0.551v-1.845h0.665v2.026c0.893,0.228,1.828,0.404,2.801,0.522v-2.548h0.663v2.613
		c0.902,0.085,1.828,0.132,2.778,0.132c0.008,0,0.017,0,0.025,0v-2.746h0.664v2.733c0.946-0.02,1.873-0.078,2.765-0.186v-2.547
		h0.665v2.452c0.927-0.137,1.817-0.324,2.664-0.566v-1.885h0.664v1.679c0.381-0.126,0.752-0.259,1.112-0.408
		c-0.741-5.83,5.15-4.853,5.987-4.687c1.927-0.647,4.371-2.682,5.428-3.831c1.686-1.832,2.422-5.719,0.445-7.535
		c-0.067-0.061-0.144-0.104-0.214-0.164c0.734-2.137,1.383-4.478,1.986-7.028C208.529,229.577,196.917,214.727,182.807,214.727z
		 M177.397,249.696c-2.425,1.757-5.059,5.142-8.291,3.178c-3.234-1.964-3.308-9.173-1.411-12.034
		c1.629-2.459,10.97-1.864,12.173,0.199C181.072,243.102,179.821,247.939,177.397,249.696z M186.017,258.357
		c-0.297,0.895-2.147-0.282-2.975-0.865c-0.827,0.582-2.678,1.76-2.976,0.865c-0.386-1.159,2.026-8.386,2.317-8.97
		c0.086-0.174,0.216-0.322,0.354-0.431c0.069-0.114,0.168-0.159,0.284-0.148c0.008-0.002,0.014,0.001,0.022,0
		c0.007,0.001,0.014-0.002,0.022,0c0.115-0.011,0.214,0.035,0.284,0.149c0.139,0.107,0.268,0.256,0.352,0.43
		C183.989,249.97,186.403,257.198,186.017,258.357z M197.519,252.298c-3.096,2.174-5.949-1.029-8.485-2.619
		c-2.537-1.589-4.105-6.335-3.04-8.474c1.063-2.138,10.344-3.354,12.133-1.01C200.209,242.925,200.613,250.122,197.519,252.298z"/>
	<path fill="#ffffff" d="M333.952,214.727c-14.111,0-26.074,13.901-22.467,27.541c0.878,3.323,1.803,6.372,2.879,9.099
		c-1.703,1.893-0.967,5.549,0.653,7.314c0.994,1.081,3.215,2.941,5.078,3.698c1.507-0.221,5.917-0.469,5.644,4.196
		c0.511,0.208,1.046,0.388,1.598,0.551v-1.845h0.665v2.026c0.893,0.228,1.828,0.404,2.801,0.522v-2.548h0.663v2.613
		c0.902,0.085,1.828,0.132,2.778,0.132c0.008,0,0.017,0,0.025,0v-2.746h0.664v2.733c0.946-0.02,1.873-0.078,2.765-0.186v-2.547
		h0.665v2.452c0.927-0.137,1.817-0.324,2.664-0.566v-1.885h0.664v1.679c0.381-0.126,0.752-0.259,1.112-0.408
		c-0.741-5.83,5.15-4.853,5.987-4.687c1.927-0.647,4.371-2.682,5.428-3.831c1.686-1.832,2.422-5.719,0.445-7.535
		c-0.067-0.061-0.144-0.104-0.214-0.164c0.734-2.137,1.383-4.478,1.986-7.028C359.674,229.577,348.062,214.727,333.952,214.727z
		 M328.542,249.696c-2.425,1.757-5.059,5.142-8.291,3.178c-3.234-1.964-3.308-9.173-1.411-12.034
		c1.629-2.459,10.97-1.864,12.173,0.199C332.217,243.102,330.966,247.939,328.542,249.696z M337.162,258.357
		c-0.297,0.895-2.147-0.282-2.975-0.865c-0.827,0.582-2.678,1.76-2.976,0.865c-0.386-1.159,2.026-8.386,2.317-8.97
		c0.086-0.174,0.216-0.322,0.354-0.431c0.069-0.114,0.168-0.159,0.284-0.148c0.008-0.002,0.014,0.001,0.022,0
		c0.007,0.001,0.014-0.002,0.022,0c0.115-0.011,0.214,0.035,0.284,0.149c0.139,0.107,0.268,0.256,0.352,0.43
		C335.134,249.97,337.548,257.198,337.162,258.357z M348.664,252.298c-3.096,2.174-5.949-1.029-8.485-2.619
		c-2.537-1.589-4.105-6.335-3.04-8.474c1.063-2.138,10.344-3.354,12.133-1.01C351.354,242.925,351.758,250.122,348.664,252.298z"/>
</g>
</svg>
