<?xml version="1.0" encoding="utf-8"?>
<!-- Generator: Adobe Illustrator 17.0.0, SVG Export Plug-In . SVG Version: 6.00 Build 0)  -->
<!DOCTYPE svg PUBLIC "-//W3C//DTD SVG 1.1//EN" "http://www.w3.org/Graphics/SVG/1.1/DTD/svg11.dtd">
<svg version="1.1" xmlns="http://www.w3.org/2000/svg" xmlns:xlink="http://www.w3.org/1999/xlink" x="0px" y="0px" width="500px"
	 height="500px" viewBox="0 0 500 500" enable-background="new 0 0 500 500" xml:space="preserve">
<g id="Layer_1">
	<path fill="#ffffff" d="M274.865,260.73l31.9-31.898L322.936,245l17.948-0.612l-24.839-24.835l-5.147-5.145l28.867-28.861
		c3.544,0.491,7.268-0.578,9.989-3.305c4.616-4.62,4.616-12.101,0.006-16.719c-4.622-4.618-12.105-4.618-16.721,0
		c-2.729,2.729-3.801,6.449-3.309,9.995l-28.859,28.859l-5.143-5.141l-24.839-24.841l-0.612,17.948l16.168,16.172l-31.892,31.9
		l-31.908-31.906l16.168-16.168l-0.612-17.948l-24.835,24.837l-5.143,5.145l-28.863-28.861c0.491-3.544-0.574-7.264-3.303-9.991
		c-4.616-4.618-12.099-4.618-16.715-0.002c-4.624,4.62-4.624,12.101,0,16.721c2.723,2.727,6.447,3.797,9.989,3.302l28.861,28.861
		l-5.141,5.141l-24.843,24.841l17.954,0.61l16.17-16.168l31.9,31.904l-73.387,73.386l-1.502,21.824l84.379-85.725l9.328-9.474
		l1.504-1.525l9.32-9.474l31.652-32.151l2.167,2.169l-32.147,31.65l-9.49,9.332l-1.502,1.478l-9.484,9.342l-85.727,84.379
		l21.814-1.508l73.395-73.389l73.384,73.387l21.826,1.508l-85.725-84.379l1.348-1.346l84.379,85.723l-1.514-21.824L274.865,260.73z
		 M243.561,251.4l-32.153-31.652l2.167-2.167l31.652,32.159L243.561,251.4z"/>
</g>
<g id="Layer_2">
	
		<rect x="161.284" y="159.077" transform="matrix(0.7071 -0.7071 0.7071 0.7071 -103.8755 253.8993)" fill="none" stroke="#ffffff" stroke-miterlimit="10" width="186.524" height="186.524"/>
</g>
<g id="Layer_6">
</g>
<g id="Layer_3">
	
		<rect x="155.874" y="153.667" transform="matrix(0.7071 -0.7071 0.7071 0.7071 -103.8756 253.899)" fill="none" stroke="#ffffff" stroke-width="6" stroke-miterlimit="10" width="197.344" height="197.344"/>
</g>
<g id="Layer_4">
</g>
<g id="Layer_5">
	<text fill="#ffffff" transform="matrix(1 0 0 1 236.1061 337.8746)" font-family="'Titillium-Bold'" font-size="10">RANKED</text>
	<polygon fill="#ffffff" points="254.606,315.829 255.752,318.152 258.314,318.524 256.46,320.331 256.898,322.883 254.606,321.678 
		252.314,322.883 252.752,320.331 250.897,318.524 253.46,318.152 	"/>
	<polygon fill="#ffffff" points="262.866,320.679 264.015,323.007 266.584,323.381 264.725,325.193 265.164,327.752 262.866,326.544 
		260.568,327.752 261.007,325.193 259.148,323.381 261.717,323.007 	"/>
	<polygon fill="#ffffff" points="245.814,320.679 246.963,323.007 249.533,323.381 247.673,325.193 248.112,327.752 245.814,326.544 
		243.516,327.752 243.955,325.193 242.096,323.381 244.665,323.007 	"/>
	<polygon fill="#ffffff" points="255.017,344.767 256.163,347.089 258.725,347.461 256.871,349.269 257.309,351.821 255.017,350.616 
		252.725,351.821 253.162,349.269 251.308,347.461 253.871,347.089 	"/>
	<polygon fill="#ffffff" points="263.277,341.231 264.426,343.559 266.995,343.932 265.136,345.744 265.574,348.303 263.277,347.095 
		260.979,348.303 261.417,345.744 259.558,343.932 262.128,343.559 	"/>
	<polygon fill="#ffffff" points="246.225,341.231 247.374,343.559 249.943,343.932 248.084,345.744 248.523,348.303 246.225,347.095 
		243.927,348.303 244.366,345.744 242.507,343.932 245.076,343.559 	"/>
</g>
<g id="Layer_11">
	<text fill="#ffffff" transform="matrix(1 0 0 1 241.8452 152.7149)"><tspan x="0" y="0" font-family="'Titillium-Bold'" font-size="10">TEAM</tspan><tspan x="-18.314" y="12" font-family="'Titillium-Bold'" font-size="10">DEATHMATCH</tspan></text>
</g>
<g id="Layer_10">
</g>
<g id="Layer_8">
</g>
<g id="Layer_13">
</g>
<g id="Layer_7">
</g>
<g id="Layer_9">
</g>
<g id="Layer_12">
</g>
<g id="Layer_14">
</g>
<g id="Layer_15">
</g>
</svg>
