<?xml version="1.0" encoding="utf-8"?>
<!-- Generator: Adobe Illustrator 17.0.0, SVG Export Plug-In . SVG Version: 6.00 Build 0)  -->
<!DOCTYPE svg PUBLIC "-//W3C//DTD SVG 1.1//EN" "http://www.w3.org/Graphics/SVG/1.1/DTD/svg11.dtd">
<svg version="1.1" id="Layer_1" xmlns="http://www.w3.org/2000/svg" xmlns:xlink="http://www.w3.org/1999/xlink" x="0px" y="0px"
	 width="512px" height="512px" viewBox="0 0 512 512" enable-background="new 0 0 512 512" xml:space="preserve">
<g>
	<defs>
		<rect id="SVGID_1_" width="512" height="512"/>
	</defs>
	<clipPath id="SVGID_2_">
		<use xlink:href="#SVGID_1_"  overflow="visible"/>
	</clipPath>
	<path clip-path="url(#SVGID_2_)" fill="#010101" d="M346.393,336.354H233.851c-75.406,0-97.295-41.719-96.064-39.249l-1.826-3.664
		c-0.701-1.442-5.534-10.24-1.98-12.899c1.12-0.838,29.603-0.745,29.603-0.745c0.666-0.209,18.072,0,19.808,0h105.671
		L346.393,336.354"/>
	<path clip-path="url(#SVGID_2_)" fill="#010101" d="M111.04,220.221c-10.52,5.708-37.421,25.997-40.645,30.776
		c-4.68,6.939,1.028,16.787,5.105,18.686c9.52,5.647,59.738,5.441,60.779,5.441h152.784c11.67,0,34.517-15.646,34.517-15.646
		c1.526-1.422,2.754-5.173,2.754-5.173l36.587-5.785l6.748-5.124l99.114-9.417c2.463-0.232,4.518-2.366,4.292-4.84
		c-0.231-2.468-3.929-4.073-6.391-3.842l-97.852,9.164l-7.305-3.785h-52.282c-8.534-5.295-38.498-22.566-71.261-25.926v-4.848
		c0,0-13.74-13.25-40.245-13.25C181.831,186.652,141.999,204.754,111.04,220.221"/>
</g>
</svg>
