<?xml version="1.0" encoding="utf-8"?>
<!-- Generator: Adobe Illustrator 17.0.0, SVG Export Plug-In . SVG Version: 6.00 Build 0)  -->
<!DOCTYPE svg PUBLIC "-//W3C//DTD SVG 1.1//EN" "http://www.w3.org/Graphics/SVG/1.1/DTD/svg11.dtd">
<svg fill="#ffffff" version="1.1" id="Layer_1" xmlns="http://www.w3.org/2000/svg" xmlns:xlink="http://www.w3.org/1999/xlink" x="0px" y="0px"
	 width="100px" height="50px" viewBox="0 0 100 50" enable-background="new 0 0 100 50" xml:space="preserve">
<polygon points="35.131,10.479 38.347,10.479 31.577,25.825 29.151,25.825 22.832,12.172 3.651,10.479 25.54,10.479 30.449,21.593 
	"/>
<path d="M45.28,10.31c-4.222,0-7.644,3.423-7.644,7.644c0,4.222,3.423,7.644,7.644,7.644s7.644-3.423,7.644-7.644
	C52.924,13.733,49.502,10.31,45.28,10.31z M45.286,22.242c-2.368,0-4.288-1.92-4.288-4.288s1.92-4.288,4.288-4.288
	c2.368,0,4.288,1.92,4.288,4.288S47.654,22.242,45.286,22.242z"/>
<rect x="54.369" y="13.526" width="3.329" height="12.524"/>
<rect x="54.369" y="10.434" width="3.329" height="2.144"/>
<path d="M62.747,10.434h-3.808V26.05h4.147c8.759-0.212,9.647-5.331,9.647-8.096C72.775,10.197,62.747,10.434,62.747,10.434z
	 M64.143,22.341h-2.24v-8.434h2.057c0,0,5.416-0.128,5.393,4.062C69.353,19.462,68.873,22.227,64.143,22.341z"/>
<path d="M27.427,40.403c-1.314,1.038-2.974,1.658-4.778,1.658c-4.259,0-7.712-3.453-7.712-7.712s3.453-7.712,7.712-7.712
	c1.854,0,3.555,0.654,4.886,1.745l-2.329,2.371c-0.74-0.545-1.655-0.868-2.645-0.868c-2.465,0-4.464,1.999-4.464,4.464
	s1.999,4.464,4.464,4.464c1.078,0,2.067-0.382,2.839-1.019L27.427,40.403z"/>
<path d="M62.476,33.09h-1.692c0,0-1.523-0.042-1.523-1.777c0-1.735,1.904-1.946,1.904-1.946h4.993v-2.539h-5.966
	c0,0-3.808,0.042-3.893,4.612c0,0-0.042,3.85,3.046,3.977h1.396c0,0,2.285-0.127,2.285,1.735c0,0,0.042,1.777-1.819,1.777
	c-1.862,0-7.828,0-7.828,0l-5.585-12.101h-2.581l-5.374,12.101h-6.431l5.289-12.101h-3.977l-6.77,15.234h13.709l1.015-2.371h7.659
	l1.058,2.371h11.467c0,0,3.385-0.467,3.385-4.994C66.242,37.067,66.411,33.428,62.476,33.09z M43.99,36.686l2.473-5.416l2.473,5.416
	H43.99z"/>
<polygon points="75.212,26.827 78.259,26.827 78.259,40.241 97.13,42.061 75.128,42.061 75.128,39.606 70.685,39.606 70.685,42.061 
	67.554,42.061 67.554,26.827 70.685,26.827 70.685,36.686 75.212,36.686 "/>
</svg>
